<svg width="82" height="73" viewBox="0 0 82 73" fill="none" xmlns="http://www.w3.org/2000/svg">
<g clip-path="url(#clip0_9_141)">
<path d="M80.0341 62.9237H77.7659V7.63005C77.7659 6.69816 77.0681 5.76627 76.1958 5.30032C75.3234 4.83437 74.1022 4.83437 73.2298 5.30032L58.4 13.1015V7.47478C58.4 6.54289 57.7022 5.611 56.8298 5.14505C55.9575 4.67911 54.7363 4.67911 53.8639 5.14505L38.1617 13.5073V7.47478C38.1617 6.54289 37.6383 5.611 36.5915 5.14505C35.5447 4.67911 34.3234 4.67911 33.451 5.30032L7.62983 21.9194C6.93203 22.3853 6.40848 23.3172 6.40848 24.0938V62.9236H3.96593C2.39576 62.9237 1 64.1663 1 65.5641C1 66.9619 2.39576 68.2045 3.96593 68.2045H9.37441H35.1958H35.8936H55.2595H74.6254H80.0339C81.6041 68.2045 82.9998 66.9619 82.9998 65.5641C82.9998 64.1663 81.6042 62.9237 80.0341 62.9237ZM52.2936 12.1342V62.9236H38.1617V19.5951L52.2936 12.1342ZM12.3405 25.3364L32.2298 12.6002V62.9236H25.2512V51.5853C25.2512 50.1875 23.8554 48.9449 22.2852 48.9449C20.7151 48.9449 19.3193 50.1875 19.3193 51.5853V62.9236H12.3405V25.3364ZM58.4 62.9237V19.1606L71.6595 12.1342V62.9236H58.4V62.9237Z" fill="#AE445A"/>
</g>
<defs>
<clipPath id="clip0_9_141">
<rect width="82" height="73" fill="white"/>
</clipPath>
</defs>
</svg>
